<svg viewBox="0 0 800 600" xmlns="http://www.w3.org/2000/svg">
  <!-- Background -->
  <rect width="800" height="600" fill="#f3f4f6" />
  
  <!-- Header -->
  <rect x="0" y="0" width="800" height="60" fill="white" stroke="#e5e7eb" stroke-width="1" />
  <text x="30" y="37" font-family="Arial" font-size="20" font-weight="bold" fill="#111827">Task Manager</text>
  
  <!-- User Menu -->
  <circle cx="760" cy="30" r="20" fill="#dbeafe" />
  <text x="760" y="36" font-family="Arial" font-size="16" font-weight="bold" text-anchor="middle" fill="#1d4ed8">U</text>
  
  <!-- Sidebar -->
  <rect x="0" y="60" width="200" height="540" fill="white" stroke="#e5e7eb" stroke-width="1" />
  <text x="20" y="100" font-family="Arial" font-size="16" fill="#6b7280">Dashboard</text>
  <text x="20" y="140" font-family="Arial" font-size="16" fill="#6b7280">Teams</text>
  <text x="20" y="180" font-family="Arial" font-size="14" font-weight="bold" fill="#9ca3af">YOUR TEAMS</text>
  <text x="30" y="210" font-family="Arial" font-size="14" font-weight="bold" fill="#3b82f6">Development Team</text>
  <text x="30" y="240" font-family="Arial" font-size="14" fill="#6b7280">Design Team</text>
  <text x="30" y="270" font-family="Arial" font-size="14" fill="#6b7280">+ Create Team</text>
  
  <!-- Main Content -->
  <text x="220" y="100" font-family="Arial" font-size="24" font-weight="bold" fill="#111827">Development Team - Task Board</text>
  
  <!-- Create Task Button -->
  <rect x="680" y="85" width="120" height="35" rx="6" fill="#3b82f6" />
  <text x="740" y="107" font-family="Arial" font-size="14" font-weight="bold" text-anchor="middle" fill="white">+ Create Task</text>
  
  <!-- Task Columns -->
  <rect x="220" y="130" width="180" height="440" rx="6" fill="#f9fafb" stroke="#e5e7eb" stroke-width="1" />
  <text x="240" y="160" font-family="Arial" font-size="16" font-weight="bold" fill="#374151">To Do</text>
  <text x="280" y="160" font-family="Arial" font-size="14" fill="#6b7280">(3)</text>
  <circle cx="380" cy="155" r="10" fill="#f3f4f6" stroke="#d1d5db" stroke-width="1" />
  <text x="380" y="160" font-family="Arial" font-size="14" font-weight="bold" text-anchor="middle" fill="#6b7280">+</text>
  
  <rect x="420" y="130" width="180" height="440" rx="6" fill="#f9fafb" stroke="#e5e7eb" stroke-width="1" />
  <text x="440" y="160" font-family="Arial" font-size="16" font-weight="bold" fill="#374151">In Progress</text>
  <text x="520" y="160" font-family="Arial" font-size="14" fill="#6b7280">(2)</text>
  <circle cx="580" cy="155" r="10" fill="#f3f4f6" stroke="#d1d5db" stroke-width="1" />
  <text x="580" y="160" font-family="Arial" font-size="14" font-weight="bold" text-anchor="middle" fill="#6b7280">+</text>
  
  <rect x="620" y="130" width="180" height="440" rx="6" fill="#f9fafb" stroke="#e5e7eb" stroke-width="1" />
  <text x="640" y="160" font-family="Arial" font-size="16" font-weight="bold" fill="#374151">Done</text>
  <text x="680" y="160" font-family="Arial" font-size="14" fill="#6b7280">(1)</text>
  <circle cx="780" cy="155" r="10" fill="#f3f4f6" stroke="#d1d5db" stroke-width="1" />
  <text x="780" y="160" font-family="Arial" font-size="14" font-weight="bold" text-anchor="middle" fill="#6b7280">+</text>
  
  <!-- To Do Cards -->
  <rect x="230" y="180" width="160" height="100" rx="4" fill="white" stroke="#e5e7eb" stroke-width="1" />
  <text x="240" y="200" font-family="Arial" font-size="14" font-weight="bold" fill="#111827">Design database schema</text>
  <text x="240" y="220" font-family="Arial" font-size="12" fill="#6b7280">Create ER diagrams and define...</text>
  <rect x="240" y="235" width="50" height="20" rx="10" fill="#fee2e2" />
  <text x="265" y="249" font-family="Arial" font-size="10" text-anchor="middle" fill="#b91c1c">High</text>
  <text x="370" y="265" font-family="Arial" font-size="10" text-anchor="end" fill="#6b7280">Apr 15</text>
  
  <rect x="230" y="290" width="160" height="100" rx="4" fill="white" stroke="#e5e7eb" stroke-width="1" />
  <text x="240" y="310" font-family="Arial" font-size="14" font-weight="bold" fill="#111827">Configure CI/CD</text>
  <text x="240" y="330" font-family="Arial" font-size="12" fill="#6b7280">Set up GitHub Actions...</text>
  <rect x="240" y="345" width="60" height="20" rx="10" fill="#fef3c7" />
  <text x="270" y="359" font-family="Arial" font-size="10" text-anchor="middle" fill="#92400e">Medium</text>
  <circle cx="370" cy="365" r="10" fill="#dbeafe" />
  <text x="370" y="370" font-family="Arial" font-size="10" font-weight="bold" text-anchor="middle" fill="#1e40af">JD</text>
  
  <rect x="230" y="400" width="160" height="100" rx="4" fill="white" stroke="#e5e7eb" stroke-width="1" />
  <text x="240" y="420" font-family="Arial" font-size="14" font-weight="bold" fill="#111827">Write documentation</text>
  <text x="240" y="440" font-family="Arial" font-size="12" fill="#6b7280">Create API documentation...</text>
  <rect x="240" y="455" width="50" height="20" rx="10" fill="#dcfce7" />
  <text x="265" y="469" font-family="Arial" font-size="10" text-anchor="middle" fill="#15803d">Low</text>
  
  <!-- In Progress Cards -->
  <rect x="430" y="180" width="160" height="100" rx="4" fill="white" stroke="#e5e7eb" stroke-width="1" />
  <text x="440" y="200" font-family="Arial" font-size="14" font-weight="bold" fill="#111827">Implement auth</text>
  <text x="440" y="220" font-family="Arial" font-size="12" fill="#6b7280">Setup JWT authentication...</text>
  <rect x="440" y="235" width="50" height="20" rx="10" fill="#fee2e2" />
  <text x="465" y="249" font-family="Arial" font-size="10" text-anchor="middle" fill="#b91c1c">High</text>
  <circle cx="570" cy="245" r="10" fill="#dbeafe" />
  <text x="570" y="250" font-family="Arial" font-size="10" font-weight="bold" text-anchor="middle" fill="#1e40af">AK</text>
  
  <rect x="430" y="290" width="160" height="100" rx="4" fill="white" stroke="#e5e7eb" stroke-width="1" />
  <text x="440" y="310" font-family="Arial" font-size="14" font-weight="bold" fill="#111827">Create API endpoints</text>
  <text x="440" y="330" font-family="Arial" font-size="12" fill="#6b7280">Implement CRUD operations...</text>
  <rect x="440" y="345" width="60" height="20" rx="10" fill="#fef3c7" />
  <text x="470" y="359" font-family="Arial" font-size="10" text-anchor="middle" fill="#92400e">Medium</text>
  <circle cx="570" cy="355" r="10" fill="#dbeafe" />
  <text x="570" y="360" font-family="Arial" font-size="10" font-weight="bold" text-anchor="middle" fill="#1e40af">JD</text>
  
  <!-- Done Cards -->
  <rect x="630" y="180" width="160" height="100" rx="4" fill="white" stroke="#e5e7eb" stroke-width="1" />
  <text x="640" y="200" font-family="Arial" font-size="14" font-weight="bold" fill="#111827">Project setup</text>
  <text x="640" y="220" font-family="Arial" font-size="12" fill="#6b7280">Initialize Git repo and...</text>
  <rect x="640" y="235" width="60" height="20" rx="10" fill="#fef3c7" />
  <text x="670" y="249" font-family="Arial" font-size="10" text-anchor="middle" fill="#92400e">Medium</text>
  <circle cx="770" cy="245" r="10" fill="#dbeafe" />
  <text x="770" y="250" font-family="Arial" font-size="10" font-weight="bold" text-anchor="middle" fill="#1e40af">AK</text>
</svg>